<svg xmlns="http://www.w3.org/2000/svg" xmlns:xlink="http://www.w3.org/1999/xlink" version="1.1" width="256" height="256" viewBox="0 0 256 256" xml:space="preserve">

<defs>
</defs>
<g style="stroke: none; stroke-width: 0; stroke-dasharray: none; stroke-linecap: butt; stroke-linejoin: miter; stroke-miterlimit: 10; fill: none; fill-rule: nonzero; opacity: 1;" transform="translate(1.4065934065934016 1.4065934065934016) scale(2.81 2.81)" >
	<path d="M 71.343 62.159 c -4.758 0 -8.628 -3.87 -8.628 -8.627 c 0 -4.758 3.87 -8.628 8.628 -8.628 s 8.628 3.87 8.628 8.628 C 79.971 58.289 76.101 62.159 71.343 62.159 z M 71.343 47.904 c -3.104 0 -5.628 2.524 -5.628 5.628 c 0 3.103 2.524 5.627 5.628 5.627 s 5.628 -2.524 5.628 -5.627 C 76.971 50.429 74.446 47.904 71.343 47.904 z" style="stroke: none; stroke-width: 1; stroke-dasharray: none; stroke-linecap: butt; stroke-linejoin: miter; stroke-miterlimit: 10; fill: rgb(0,0,0); fill-rule: nonzero; opacity: 1;" transform=" matrix(1 0 0 1 0 0) " stroke-linecap="round" />
	<path d="M 17.62 62.159 c -4.757 0 -8.628 -3.87 -8.628 -8.627 c 0 -4.758 3.871 -8.628 8.628 -8.628 s 8.627 3.87 8.627 8.628 C 26.247 58.289 22.377 62.159 17.62 62.159 z M 17.62 47.904 c -3.103 0 -5.628 2.524 -5.628 5.628 c 0 3.103 2.525 5.627 5.628 5.627 s 5.627 -2.524 5.627 -5.627 C 23.247 50.429 20.723 47.904 17.62 47.904 z" style="stroke: none; stroke-width: 1; stroke-dasharray: none; stroke-linecap: butt; stroke-linejoin: miter; stroke-miterlimit: 10; fill: rgb(0,0,0); fill-rule: nonzero; opacity: 1;" transform=" matrix(1 0 0 1 0 0) " stroke-linecap="round" />
	<path d="M 71.34 56.53 c -0.19 0 -0.39 -0.021 -0.58 -0.061 c -0.2 -0.04 -0.38 -0.09 -0.56 -0.17 c -0.19 -0.07 -0.36 -0.17 -0.521 -0.27 c -0.17 -0.11 -0.32 -0.24 -0.46 -0.381 c -0.56 -0.55 -0.88 -1.33 -0.88 -2.119 c 0 -0.79 0.32 -1.561 0.88 -2.12 c 1.12 -1.11 3.12 -1.12 4.24 0 c 0.56 0.56 0.88 1.33 0.88 2.12 c 0 0.789 -0.32 1.56 -0.88 2.119 C 72.899 56.21 72.13 56.53 71.34 56.53 z" style="stroke: none; stroke-width: 1; stroke-dasharray: none; stroke-linecap: butt; stroke-linejoin: miter; stroke-miterlimit: 10; fill: rgb(0,0,0); fill-rule: nonzero; opacity: 1;" transform=" matrix(1 0 0 1 0 0) " stroke-linecap="round" />
	<path d="M 17.62 56.53 c -0.79 0 -1.56 -0.32 -2.12 -0.881 c -0.14 -0.13 -0.26 -0.29 -0.37 -0.449 c -0.11 -0.17 -0.21 -0.341 -0.28 -0.521 c -0.08 -0.18 -0.13 -0.37 -0.17 -0.56 c -0.04 -0.2 -0.06 -0.391 -0.06 -0.59 c 0 -0.79 0.32 -1.561 0.88 -2.12 c 0.7 -0.7 1.73 -1.021 2.71 -0.82 c 0.19 0.04 0.38 0.1 0.56 0.17 c 0.18 0.08 0.35 0.17 0.52 0.28 c 0.16 0.109 0.31 0.229 0.45 0.37 c 0.14 0.14 0.27 0.29 0.37 0.46 c 0.11 0.16 0.2 0.33 0.28 0.52 c 0.07 0.18 0.13 0.37 0.17 0.561 c 0.04 0.189 0.06 0.39 0.06 0.58 c 0 0.199 -0.02 0.399 -0.06 0.59 c -0.04 0.189 -0.1 0.38 -0.17 0.56 c -0.08 0.18 -0.17 0.351 -0.28 0.521 c -0.11 0.159 -0.23 0.319 -0.37 0.449 c -0.14 0.141 -0.29 0.271 -0.46 0.381 c -0.16 0.1 -0.33 0.199 -0.51 0.27 c -0.18 0.08 -0.37 0.14 -0.56 0.17 C 18.01 56.51 17.81 56.53 17.62 56.53 z" style="stroke: none; stroke-width: 1; stroke-dasharray: none; stroke-linecap: butt; stroke-linejoin: miter; stroke-miterlimit: 10; fill: rgb(0,0,0); fill-rule: nonzero; opacity: 1;" transform=" matrix(1 0 0 1 0 0) " stroke-linecap="round" />
	<path d="M 84.18 42.13 l -22.961 -5.208 l -12.063 -7 c -2.348 -1.362 -5.022 -2.082 -7.734 -2.082 h -23.53 c -4.746 0 -9.154 2.136 -12.095 5.861 l -3.368 4.266 c -1.042 1.321 -1.659 2.905 -1.783 4.582 l -0.631 8.508 c -0.181 2.445 1.417 4.643 3.8 5.224 l 3.851 0.938 c -0.428 -1.151 -0.673 -2.389 -0.673 -3.687 c 0 -5.86 4.768 -10.628 10.628 -10.628 c 5.86 0 10.627 4.768 10.627 10.628 c 0 1.607 -0.369 3.125 -1.01 4.492 h 34.488 c -0.641 -1.367 -1.01 -2.885 -1.01 -4.492 c 0 -5.86 4.768 -10.628 10.628 -10.628 s 10.628 4.768 10.628 10.628 c 0 1.468 -0.3 2.868 -0.841 4.141 l 4.646 -0.504 C 88.185 56.907 90 54.883 90 52.462 v -3.043 C 90 45.905 87.606 42.908 84.18 42.13 z M 20.415 39.055 c -1.031 0 -1.96 -0.485 -2.551 -1.33 c -0.59 -0.845 -0.725 -1.885 -0.37 -2.853 l 1.48 -4.031 h 14.751 l 0.832 8.214 H 20.415 z M 51.181 39.055 H 37.572 L 36.74 30.84 h 4.68 c 2.185 0 4.338 0.58 6.229 1.676 l 9.593 5.566 C 55.288 38.723 53.257 39.055 51.181 39.055 z" style="stroke: none; stroke-width: 1; stroke-dasharray: none; stroke-linecap: butt; stroke-linejoin: miter; stroke-miterlimit: 10; fill: rgb(0,0,0); fill-rule: nonzero; opacity: 1;" transform=" matrix(1 0 0 1 0 0) " stroke-linecap="round" />
</g>
</svg>