<svg xmlns="http://www.w3.org/2000/svg" xmlns:xlink="http://www.w3.org/1999/xlink" version="1.1" width="256" height="256" viewBox="0 0 256 256" xml:space="preserve">

<defs>
</defs>
<g style="stroke: none; stroke-width: 0; stroke-dasharray: none; stroke-linecap: butt; stroke-linejoin: miter; stroke-miterlimit: 10; fill: none; fill-rule: nonzero; opacity: 1;" transform="translate(1.4065934065934016 1.4065934065934016) scale(2.81 2.81)" >
	<path d="M 73.269 66.236 c -5.185 0 -9.402 -4.218 -9.402 -9.402 s 4.218 -9.402 9.402 -9.402 s 9.402 4.218 9.402 9.402 S 78.453 66.236 73.269 66.236 z M 73.269 50.432 c -3.53 0 -6.402 2.872 -6.402 6.402 s 2.872 6.402 6.402 6.402 s 6.402 -2.872 6.402 -6.402 S 76.799 50.432 73.269 50.432 z" style="stroke: none; stroke-width: 1; stroke-dasharray: none; stroke-linecap: butt; stroke-linejoin: miter; stroke-miterlimit: 10; fill: rgb(0,0,0); fill-rule: nonzero; opacity: 1;" transform=" matrix(1 0 0 1 0 0) " stroke-linecap="round" />
	<path d="M 15.291 66.236 c -5.185 0 -9.402 -4.218 -9.402 -9.402 s 4.218 -9.402 9.402 -9.402 s 9.402 4.218 9.402 9.402 S 20.476 66.236 15.291 66.236 z M 15.291 50.432 c -3.53 0 -6.402 2.872 -6.402 6.402 s 2.872 6.402 6.402 6.402 s 6.402 -2.872 6.402 -6.402 S 18.821 50.432 15.291 50.432 z" style="stroke: none; stroke-width: 1; stroke-dasharray: none; stroke-linecap: butt; stroke-linejoin: miter; stroke-miterlimit: 10; fill: rgb(0,0,0); fill-rule: nonzero; opacity: 1;" transform=" matrix(1 0 0 1 0 0) " stroke-linecap="round" />
	<path d="M 73.27 60.33 c -0.234 0 -0.466 -0.024 -0.688 -0.071 c -0.221 -0.034 -0.443 -0.105 -0.653 -0.198 c -0.211 -0.081 -0.409 -0.187 -0.607 -0.314 c -0.187 -0.129 -0.373 -0.28 -0.525 -0.432 c -0.653 -0.654 -1.027 -1.563 -1.027 -2.485 c 0 -0.222 0.024 -0.456 0.071 -0.677 c 0.047 -0.222 0.105 -0.443 0.198 -0.654 c 0.081 -0.21 0.198 -0.419 0.314 -0.606 c 0.129 -0.198 0.28 -0.374 0.443 -0.537 c 0.153 -0.164 0.338 -0.303 0.525 -0.432 c 0.198 -0.129 0.396 -0.234 0.607 -0.327 c 0.21 -0.081 0.432 -0.152 0.653 -0.198 c 1.144 -0.221 2.345 0.152 3.162 0.957 c 0.164 0.163 0.303 0.338 0.432 0.537 c 0.129 0.187 0.234 0.396 0.327 0.606 c 0.081 0.211 0.152 0.432 0.198 0.654 c 0.047 0.221 0.069 0.455 0.069 0.677 c 0 0.922 -0.373 1.819 -1.027 2.485 c -0.163 0.152 -0.338 0.303 -0.537 0.432 c -0.187 0.128 -0.385 0.234 -0.595 0.314 c -0.222 0.093 -0.432 0.164 -0.665 0.198 C 73.725 60.306 73.492 60.33 73.27 60.33 z" style="stroke: none; stroke-width: 1; stroke-dasharray: none; stroke-linecap: butt; stroke-linejoin: miter; stroke-miterlimit: 10; fill: rgb(0,0,0); fill-rule: nonzero; opacity: 1;" transform=" matrix(1 0 0 1 0 0) " stroke-linecap="round" />
	<path d="M 15.29 60.33 c -0.922 0 -1.82 -0.374 -2.473 -1.027 c -0.163 -0.153 -0.304 -0.338 -0.432 -0.525 c -0.128 -0.187 -0.234 -0.396 -0.326 -0.607 c -0.082 -0.21 -0.152 -0.432 -0.199 -0.653 c -0.046 -0.222 -0.069 -0.455 -0.069 -0.688 c 0 -0.91 0.373 -1.821 1.027 -2.473 c 0.163 -0.164 0.338 -0.303 0.537 -0.432 c 0.187 -0.129 0.385 -0.234 0.595 -0.327 c 0.21 -0.081 0.432 -0.152 0.665 -0.198 c 1.131 -0.221 2.345 0.152 3.15 0.957 c 0.653 0.653 1.027 1.552 1.027 2.473 c 0 0.234 -0.023 0.466 -0.07 0.688 c -0.047 0.221 -0.105 0.443 -0.198 0.653 c -0.082 0.211 -0.199 0.42 -0.315 0.607 c -0.129 0.187 -0.28 0.373 -0.444 0.525 c -0.163 0.163 -0.338 0.314 -0.525 0.443 c -0.198 0.128 -0.397 0.234 -0.607 0.314 c -0.21 0.093 -0.432 0.164 -0.653 0.198 C 15.745 60.306 15.523 60.33 15.29 60.33 z" style="stroke: none; stroke-width: 1; stroke-dasharray: none; stroke-linecap: butt; stroke-linejoin: miter; stroke-miterlimit: 10; fill: rgb(0,0,0); fill-rule: nonzero; opacity: 1;" transform=" matrix(1 0 0 1 0 0) " stroke-linecap="round" />
	<path d="M 76.378 38.143 l -7.336 -1.897 l -4.754 -4.129 c -6.202 -5.386 -14.141 -8.353 -22.354 -8.353 H 24.382 c -0.022 0 -0.043 0.003 -0.065 0.003 c -0.017 0.001 -0.033 0.001 -0.05 0.002 c -2.984 0.03 -5.789 1.197 -7.908 3.304 l -8.382 8.332 c -3.702 3.681 -6.151 8.342 -7.083 13.479 l -0.817 4.508 c -0.352 1.943 0.543 3.939 2.229 4.969 l 1.919 1.172 c -0.212 -0.867 -0.336 -1.767 -0.336 -2.698 c 0 -6.287 5.115 -11.402 11.402 -11.402 s 11.402 5.115 11.402 11.402 c 0 1.723 -0.395 3.352 -1.083 4.818 h 37.339 c -0.687 -1.466 -1.083 -3.095 -1.083 -4.818 c 0 -6.287 5.115 -11.402 11.402 -11.402 s 11.402 5.115 11.402 11.402 c 0 1.521 -0.305 2.97 -0.847 4.297 l 1.825 -0.291 C 88.17 60.437 90 58.292 90 55.739 C 90 47.454 84.398 40.218 76.378 38.143 z M 24.579 36.109 c -0.563 0 -1.073 -0.264 -1.398 -0.723 c -0.325 -0.459 -0.405 -1.027 -0.218 -1.559 l 2.482 -7.064 h 11.571 l 1.321 9.346 H 24.579 z M 41.366 36.109 l -1.321 -9.346 h 1.888 c 7.49 0 14.731 2.705 20.388 7.617 l 1.99 1.729 H 41.366 z" style="stroke: none; stroke-width: 1; stroke-dasharray: none; stroke-linecap: butt; stroke-linejoin: miter; stroke-miterlimit: 10; fill: rgb(0,0,0); fill-rule: nonzero; opacity: 1;" transform=" matrix(1 0 0 1 0 0) " stroke-linecap="round" />
</g>
</svg>