<svg xmlns="http://www.w3.org/2000/svg" xmlns:xlink="http://www.w3.org/1999/xlink" version="1.1" width="256" height="256" viewBox="0 0 256 256" xml:space="preserve">

<defs>
</defs>
<g style="stroke: none; stroke-width: 0; stroke-dasharray: none; stroke-linecap: butt; stroke-linejoin: miter; stroke-miterlimit: 10; fill: none; fill-rule: nonzero; opacity: 1;" transform="translate(1.4065934065934016 1.4065934065934016) scale(2.81 2.81)" >
	<path d="M 72.666 61.984 c -4.713 0 -8.548 -3.835 -8.548 -8.548 s 3.835 -8.548 8.548 -8.548 s 8.548 3.835 8.548 8.548 S 77.379 61.984 72.666 61.984 z M 72.666 47.889 c -3.06 0 -5.548 2.488 -5.548 5.548 s 2.488 5.548 5.548 5.548 s 5.548 -2.488 5.548 -5.548 S 75.726 47.889 72.666 47.889 z" style="stroke: none; stroke-width: 1; stroke-dasharray: none; stroke-linecap: butt; stroke-linejoin: miter; stroke-miterlimit: 10; fill: rgb(0,0,0); fill-rule: nonzero; opacity: 1;" transform=" matrix(1 0 0 1 0 0) " stroke-linecap="round" />
	<path d="M 17.934 61.984 c -4.713 0 -8.548 -3.835 -8.548 -8.548 s 3.835 -8.548 8.548 -8.548 s 8.548 3.835 8.548 8.548 S 22.647 61.984 17.934 61.984 z M 17.934 47.889 c -3.06 0 -5.548 2.488 -5.548 5.548 s 2.489 5.548 5.548 5.548 c 3.059 0 5.548 -2.488 5.548 -5.548 S 20.993 47.889 17.934 47.889 z" style="stroke: none; stroke-width: 1; stroke-dasharray: none; stroke-linecap: butt; stroke-linejoin: miter; stroke-miterlimit: 10; fill: rgb(0,0,0); fill-rule: nonzero; opacity: 1;" transform=" matrix(1 0 0 1 0 0) " stroke-linecap="round" />
	<path d="M 72.67 56.439 c -0.79 0 -1.57 -0.319 -2.13 -0.88 c -0.55 -0.56 -0.88 -1.33 -0.88 -2.12 s 0.33 -1.56 0.88 -2.12 c 0.14 -0.14 0.3 -0.27 0.46 -0.38 c 0.16 -0.109 0.34 -0.199 0.52 -0.27 c 0.181 -0.08 0.37 -0.14 0.561 -0.17 c 0.979 -0.2 2.01 0.12 2.71 0.819 c 0.14 0.131 0.26 0.29 0.37 0.45 c 0.109 0.16 0.199 0.34 0.279 0.521 c 0.07 0.18 0.13 0.37 0.17 0.56 c 0.04 0.19 0.061 0.391 0.061 0.59 c 0 0.79 -0.32 1.561 -0.88 2.12 c -0.141 0.141 -0.3 0.26 -0.46 0.37 s -0.34 0.2 -0.521 0.28 c -0.18 0.07 -0.37 0.13 -0.56 0.17 C 73.06 56.42 72.859 56.439 72.67 56.439 z" style="stroke: none; stroke-width: 1; stroke-dasharray: none; stroke-linecap: butt; stroke-linejoin: miter; stroke-miterlimit: 10; fill: rgb(0,0,0); fill-rule: nonzero; opacity: 1;" transform=" matrix(1 0 0 1 0 0) " stroke-linecap="round" />
	<path d="M 17.93 56.439 c -0.19 0 -0.39 -0.02 -0.58 -0.06 c -0.19 -0.04 -0.38 -0.1 -0.56 -0.17 c -0.18 -0.08 -0.36 -0.17 -0.52 -0.28 c -0.17 -0.11 -0.32 -0.229 -0.46 -0.37 c -0.14 -0.14 -0.26 -0.29 -0.37 -0.46 c -0.11 -0.16 -0.2 -0.33 -0.28 -0.52 c -0.07 -0.181 -0.13 -0.37 -0.17 -0.561 c -0.04 -0.189 -0.06 -0.39 -0.06 -0.58 c 0 -0.79 0.32 -1.56 0.88 -2.13 c 0.14 -0.13 0.29 -0.26 0.46 -0.37 c 0.16 -0.109 0.34 -0.199 0.52 -0.27 c 0.18 -0.08 0.37 -0.14 0.56 -0.18 c 0.39 -0.07 0.78 -0.07 1.17 0 c 0.19 0.04 0.38 0.1 0.56 0.18 c 0.18 0.07 0.36 0.16 0.52 0.27 c 0.16 0.11 0.32 0.24 0.46 0.37 c 0.13 0.141 0.26 0.3 0.37 0.46 c 0.11 0.16 0.2 0.34 0.27 0.521 c 0.08 0.18 0.14 0.37 0.18 0.56 c 0.03 0.19 0.05 0.391 0.05 0.59 c 0 0.19 -0.02 0.391 -0.05 0.58 c -0.04 0.19 -0.1 0.38 -0.18 0.561 c -0.07 0.189 -0.16 0.359 -0.27 0.52 c -0.11 0.17 -0.24 0.32 -0.37 0.46 c -0.14 0.141 -0.3 0.26 -0.46 0.37 c -0.16 0.11 -0.34 0.2 -0.52 0.28 c -0.18 0.07 -0.37 0.13 -0.56 0.17 C 18.33 56.42 18.13 56.439 17.93 56.439 z" style="stroke: none; stroke-width: 1; stroke-dasharray: none; stroke-linecap: butt; stroke-linejoin: miter; stroke-miterlimit: 10; fill: rgb(0,0,0); fill-rule: nonzero; opacity: 1;" transform=" matrix(1 0 0 1 0 0) " stroke-linecap="round" />
	<path d="M 89.688 51.434 c -2.643 -6.452 -8.583 -10.998 -15.484 -11.861 l -18.728 -2.59 c -3.056 -2.644 -6.838 -5.031 -11.266 -7.093 c -2.633 -1.226 -5.591 -1.874 -8.553 -1.874 h -6.541 c -0.257 0 -0.512 0.025 -0.768 0.032 c -0.231 -0.044 -0.468 -0.035 -0.694 0.029 c -5.397 0.3 -10.65 2.23 -14.931 5.549 l -4.307 3.339 l -4.595 0.512 c -0.642 0.072 -1.167 0.546 -1.301 1.178 L 0.09 50.06 c -0.425 1.998 0.702 4.029 2.621 4.727 l 5.187 1.884 c -0.329 -1.02 -0.512 -2.105 -0.512 -3.233 c 0 -5.816 4.732 -10.548 10.548 -10.548 c 5.816 0 10.548 4.731 10.548 10.548 c 0 1.595 -0.366 3.102 -1.003 4.459 h 35.641 c -0.636 -1.357 -1.002 -2.864 -1.002 -4.459 c 0 -5.816 4.731 -10.548 10.548 -10.548 s 10.548 4.731 10.548 10.548 c 0 1.456 -0.297 2.845 -0.833 4.108 l 3.925 -0.426 c 1.305 -0.142 2.438 -0.87 3.11 -1.998 C 90.087 53.992 90.187 52.648 89.688 51.434 z M 45.096 38.967 l -15.587 -0.76 c -0.664 -0.02 -3.013 -0.093 -5.348 -0.23 c -0.414 -0.024 -0.582 -0.323 -0.635 -0.45 c -0.053 -0.127 -0.146 -0.457 0.128 -0.766 l 5.075 -5.729 c 0.13 -0.002 0.258 -0.016 0.388 -0.016 h 6.541 c 2.528 0 5.047 0.551 7.287 1.594 c 3.427 1.596 6.429 3.388 8.971 5.34 C 49.714 38.681 47.382 39.036 45.096 38.967 z" style="stroke: none; stroke-width: 1; stroke-dasharray: none; stroke-linecap: butt; stroke-linejoin: miter; stroke-miterlimit: 10; fill: rgb(0,0,0); fill-rule: nonzero; opacity: 1;" transform=" matrix(1 0 0 1 0 0) " stroke-linecap="round" />
</g>
</svg>